<svg width="180" height="66" viewBox="0 0 360 66" fill="none" xmlns="http://www.w3.org/2000/svg">
<path d="M31.25 3.75C26.825 3.75 22.925 6.675 21.675 10.925C20.35 10.325 18.95 10 17.5 10C14.8478 10 12.3043 11.0536 10.4289 12.9289C8.55357 14.8043 7.5 17.3478 7.5 20C7.50592 22.2146 8.24499 24.3649 9.6018 26.1152C10.9586 27.8655 12.8568 29.1172 15 29.675V47.5H47.5V29.675C51.9 28.525 55 24.55 55 20C55 17.3478 53.9464 14.8043 52.0711 12.9289C50.1957 11.0536 47.6522 10 45 10C43.55 10 42.15 10.325 40.825 10.925C39.575 6.675 35.675 3.75 31.25 3.75ZM30 26.25H32.5V43.75H30V26.25ZM22.5 31.25H25V43.75H22.5V31.25ZM37.5 31.25H40V43.75H37.5V31.25ZM15 50V52.5C15 53.163 15.2634 53.7989 15.7322 54.2678C16.2011 54.7366 16.837 55 17.5 55H45C45.663 55 46.2989 54.7366 46.7678 54.2678C47.2366 53.7989 47.5 53.163 47.5 52.5V50H15Z" fill="#F97316"/>
<path d="M106.73 17.15C104.397 15.2833 101.69 14.35 98.61 14.35C95.5767 14.35 91.61 14.9567 86.71 16.17C87.4567 18.7367 87.83 21.35 87.83 24.01C87.83 26.67 87.76 28.8167 87.62 30.45C89.6267 30.0767 91.6333 29.89 93.64 29.89C95.6467 29.89 97.6067 30.2633 99.52 31.01C99.52 33.0633 99.1 34.6733 98.26 35.84C96.16 35.0467 93.7333 34.65 90.98 34.65C90.1867 34.65 88.9033 34.79 87.13 35.07C86.0567 42.3033 83.9333 48.0667 80.76 52.36C77.6333 56.6067 73.9467 58.73 69.7 58.73C67.1333 58.73 65.0567 57.96 63.47 56.42C61.8833 54.88 61.09 52.8267 61.09 50.26C61.09 46.76 62.5367 43.4467 65.43 40.32C68.37 37.1467 72.22 34.6267 76.98 32.76C77.3067 31.36 77.47 29.3067 77.47 26.6C77.47 23.8467 77.2133 21.4433 76.7 19.39C75.5333 19.67 74.2267 19.81 72.78 19.81C70.0267 19.81 67.8333 19.18 66.2 17.92C64.6133 16.66 63.82 15.05 63.82 13.09C63.82 11.0833 64.7533 9.45 66.62 8.19C68.4867 6.93 70.9133 6.3 73.9 6.3C78.4267 6.3 81.9267 8.05 84.4 11.55C88.04 9.59 90.63 8.23666 92.17 7.49C95.95 5.57666 99.03 4.62 101.41 4.62C103.837 4.62 105.75 5.71666 107.15 7.91C108.55 10.1033 109.25 12.5767 109.25 15.33C109.063 15.7033 108.223 16.31 106.73 17.15ZM68.65 52.01C70.33 52.01 71.8467 50.6567 73.2 47.95C74.5533 45.2433 75.5567 41.93 76.21 38.01C73.3633 39.13 70.96 40.7633 69 42.91C67.0867 45.0567 66.13 47.0867 66.13 49C66.13 49.9333 66.3633 50.68 66.83 51.24C67.2967 51.7533 67.9033 52.01 68.65 52.01ZM69.07 13.65C69.07 14.3967 69.4433 14.98 70.19 15.4C70.9833 15.7733 71.8467 15.96 72.78 15.96C73.7133 15.96 74.5533 15.82 75.3 15.54C74.1333 13.2533 72.6633 12.11 70.89 12.11C69.6767 12.11 69.07 12.6233 69.07 13.65ZM112.933 56.84C109.713 56.84 107.193 55.72 105.373 53.48C103.553 51.1933 102.643 48.02 102.643 43.96C102.643 38.78 104.02 34.3233 106.773 30.59C109.573 26.8567 113.423 24.99 118.323 24.99L120.843 25.13C121.637 24.71 122.523 24.5 123.503 24.5C127.19 24.5 129.033 27.9767 129.033 34.93C130.947 34.8367 132.883 34.58 134.843 34.16L135.963 33.88L136.383 36.61C134.843 37.2633 132.767 37.8467 130.153 38.36L128.753 38.64C127.867 43.54 126.07 47.81 123.363 51.45C120.657 55.0433 117.18 56.84 112.933 56.84ZM116.713 50.82C118.673 50.82 120.423 49.56 121.963 47.04C123.55 44.52 124.647 41.86 125.253 39.06C120.26 39.06 117.763 37.1933 117.763 33.46C117.763 31.9667 118.067 30.5667 118.673 29.26L119.023 28.56C118.837 28.4667 118.603 28.42 118.323 28.42C118.043 28.42 117.833 28.4667 117.693 28.56C116.527 29.3067 115.43 31.0567 114.403 33.81C113.377 36.5633 112.863 39.7133 112.863 43.26C112.863 48.3 114.147 50.82 116.713 50.82ZM142.259 56.84C139.039 56.84 136.519 55.72 134.699 53.48C132.879 51.1933 131.969 48.02 131.969 43.96C131.969 38.78 133.346 34.3233 136.099 30.59C138.899 26.8567 142.749 24.99 147.649 24.99L150.169 25.13C150.963 24.71 151.849 24.5 152.829 24.5C156.516 24.5 158.359 27.9767 158.359 34.93C160.273 34.8367 162.209 34.58 164.169 34.16L165.289 33.88L165.709 36.61C164.169 37.2633 162.093 37.8467 159.479 38.36L158.079 38.64C157.193 43.54 155.396 47.81 152.689 51.45C149.983 55.0433 146.506 56.84 142.259 56.84ZM146.039 50.82C147.999 50.82 149.749 49.56 151.289 47.04C152.876 44.52 153.973 41.86 154.579 39.06C149.586 39.06 147.089 37.1933 147.089 33.46C147.089 31.9667 147.393 30.5667 147.999 29.26L148.349 28.56C148.163 28.4667 147.929 28.42 147.649 28.42C147.369 28.42 147.159 28.4667 147.019 28.56C145.853 29.3067 144.756 31.0567 143.729 33.81C142.703 36.5633 142.189 39.7133 142.189 43.26C142.189 48.3 143.473 50.82 146.039 50.82ZM194.282 51.73C190.315 55.1367 186.815 56.84 183.782 56.84C180.795 56.84 179.069 55.3467 178.602 52.36C177.202 53.76 175.639 54.8567 173.912 55.65C172.185 56.4433 170.669 56.84 169.362 56.84C167.122 56.84 165.209 55.86 163.622 53.9C162.035 51.94 161.242 48.9067 161.242 44.8C161.242 38.64 162.549 33.81 165.162 30.31C167.775 26.7633 170.715 24.99 173.982 24.99C177.295 24.99 180.072 25.7367 182.312 27.23C183.759 19.67 184.482 13.72 184.482 9.38L184.132 6.44C187.632 5.22667 191.062 4.62 194.422 4.62C194.795 5.41333 194.982 6.32333 194.982 7.35C194.982 10.7567 193.955 17.6867 191.902 28.14C189.849 38.5467 188.822 45.6167 188.822 49.35C188.822 50.47 189.079 51.03 189.592 51.03C189.872 51.03 190.759 50.5867 192.252 49.7L192.952 49.28L194.282 51.73ZM177.412 29.12C175.779 29.12 174.355 30.73 173.142 33.95C171.975 37.17 171.392 40.3667 171.392 43.54C171.392 46.6667 171.602 48.6733 172.022 49.56C172.489 50.4467 173.165 50.89 174.052 50.89C175.592 50.89 177.109 50.26 178.602 49C178.742 47.1333 179.792 40.9267 181.752 30.38C180.165 29.54 178.719 29.12 177.412 29.12ZM210.729 29.33C210.729 31.29 210.099 34.6733 208.839 39.48C207.579 44.24 206.949 47.3667 206.949 48.86C206.949 50.3067 207.159 51.03 207.579 51.03C207.859 51.03 208.932 50.5867 210.799 49.7L211.639 49.28L212.829 51.73C212.409 52.1033 211.849 52.57 211.149 53.13C210.449 53.69 209.142 54.46 207.229 55.44C205.315 56.3733 203.542 56.84 201.909 56.84C200.275 56.84 198.992 56.35 198.059 55.37C197.125 54.3433 196.659 52.99 196.659 51.31C196.659 49.5833 197.242 46.55 198.409 42.21C199.575 37.8233 200.159 34.9767 200.159 33.67C200.159 31.71 199.552 29.8667 198.339 28.14L197.709 27.3L197.779 26.39C200.252 25.69 204.265 25.34 209.819 25.34C210.425 26.04 210.729 27.37 210.729 29.33ZM202.749 17.71C201.815 16.7767 201.349 15.54 201.349 14C201.349 12.46 201.979 11.1067 203.239 9.94C204.545 8.77333 206.039 8.19 207.719 8.19C209.399 8.19 210.705 8.65666 211.639 9.59C212.572 10.5233 213.039 11.76 213.039 13.3C213.039 14.7933 212.362 16.1233 211.009 17.29C209.702 18.4567 208.232 19.04 206.599 19.04C204.965 19.04 203.682 18.5967 202.749 17.71ZM215.031 43.89C215.031 38.0567 216.781 33.46 220.281 30.1C223.828 26.6933 227.841 24.99 232.321 24.99C235.074 24.99 237.338 25.6667 239.111 27.02C240.884 28.3733 241.771 30.1933 241.771 32.48C241.771 34.72 241.188 36.61 240.021 38.15C238.901 39.69 237.524 40.88 235.891 41.72C232.578 43.3533 229.544 44.38 226.791 44.8L225.111 45.01C225.438 49.3967 227.234 51.59 230.501 51.59C231.621 51.59 232.811 51.31 234.071 50.75C235.331 50.19 236.311 49.63 237.011 49.07L238.061 48.23L239.741 50.47C239.368 50.9833 238.621 51.66 237.501 52.5C236.381 53.34 235.331 54.04 234.351 54.6C231.644 56.0933 228.681 56.84 225.461 56.84C222.241 56.84 219.698 55.6967 217.831 53.41C215.964 51.1233 215.031 47.95 215.031 43.89ZM225.041 41.58C227.421 41.16 229.311 40.1567 230.711 38.57C232.111 36.9833 232.811 34.93 232.811 32.41C232.811 29.89 232.064 28.63 230.571 28.63C228.798 28.63 227.421 30.1467 226.441 33.18C225.508 36.1667 225.041 38.9667 225.041 41.58ZM295.924 59.92C295.224 61.4133 294.104 62.7667 292.564 63.98C291.07 65.24 289.46 65.87 287.734 65.87C286.007 65.87 284.304 65.38 282.624 64.4C280.99 63.4667 279.66 62.51 278.634 61.53C277.607 60.55 276.137 59.0333 274.224 56.98C272.357 54.9267 271.074 53.55 270.374 52.85C267.9 55.51 264.89 56.84 261.344 56.84C259.01 56.84 257.097 56.2567 255.604 55.09C254.11 53.9233 253.364 52.3833 253.364 50.47C253.364 48.51 254.157 46.8533 255.744 45.5C257.377 44.1 259.547 43.4 262.254 43.4C263.794 43.4 265.334 43.6567 266.874 44.17C267.34 41.8833 267.714 38.64 267.994 34.44C265.147 33.9267 262.814 32.7367 260.994 30.87C259.22 28.9567 258.334 26.32 258.334 22.96C258.334 21.6533 258.544 19.9967 258.964 17.99C259.477 17.8967 260.154 17.85 260.994 17.85C261.834 17.85 262.697 18.1767 263.584 18.83C262.977 19.95 262.674 21.4433 262.674 23.31C262.674 27.09 264.517 29.4233 268.204 30.31C268.39 25.2233 268.67 21.6533 269.044 19.6C269.417 17.5 270.07 15.5167 271.004 13.65C271.937 11.7367 273.477 10.0333 275.624 8.54C277.817 7.04666 280.594 6.3 283.954 6.3C287.314 6.3 289.904 7.30333 291.724 9.31C293.59 11.27 294.524 13.6033 294.524 16.31C294.524 20.09 292.774 23.9167 289.274 27.79C285.82 31.6167 281.527 33.95 276.394 34.79C274.947 41.09 273.897 45.36 273.244 47.6C273.99 48.16 275.344 49.21 277.304 50.75C279.31 52.29 280.827 53.4333 281.854 54.18C282.927 54.88 284.35 55.58 286.124 56.28C287.944 57.0267 289.694 57.4 291.374 57.4L294.314 57.19C295.107 58.31 295.644 59.22 295.924 59.92ZM289.834 16.94C289.834 15.54 289.46 14.3967 288.714 13.51C288.014 12.6233 287.057 12.18 285.844 12.18C282.717 12.18 280.43 15.5867 278.984 22.4C278.19 26.1333 277.63 28.84 277.304 30.52C280.757 29.9133 283.697 28.21 286.124 25.41C288.597 22.5633 289.834 19.74 289.834 16.94ZM260.714 51.59C262.347 51.59 263.794 50.7033 265.054 48.93C263.7 48.09 262.347 47.67 260.994 47.67C258.987 47.67 257.984 48.3233 257.984 49.63C257.984 50.2833 258.264 50.7733 258.824 51.1C259.384 51.4267 260.014 51.59 260.714 51.59ZM308.551 29.33C308.551 31.29 307.921 34.6733 306.661 39.48C305.401 44.24 304.771 47.3667 304.771 48.86C304.771 50.3067 304.981 51.03 305.401 51.03C305.681 51.03 306.754 50.5867 308.621 49.7L309.461 49.28L310.651 51.73C310.231 52.1033 309.671 52.57 308.971 53.13C308.271 53.69 306.964 54.46 305.051 55.44C303.138 56.3733 301.364 56.84 299.731 56.84C298.098 56.84 296.814 56.35 295.881 55.37C294.948 54.3433 294.481 52.99 294.481 51.31C294.481 49.5833 295.064 46.55 296.231 42.21C297.398 37.8233 297.981 34.9767 297.981 33.67C297.981 31.71 297.374 29.8667 296.161 28.14L295.531 27.3L295.601 26.39C298.074 25.69 302.088 25.34 307.641 25.34C308.248 26.04 308.551 27.37 308.551 29.33ZM300.571 17.71C299.638 16.7767 299.171 15.54 299.171 14C299.171 12.46 299.801 11.1067 301.061 9.94C302.368 8.77333 303.861 8.19 305.541 8.19C307.221 8.19 308.528 8.65666 309.461 9.59C310.394 10.5233 310.861 11.76 310.861 13.3C310.861 14.7933 310.184 16.1233 308.831 17.29C307.524 18.4567 306.054 19.04 304.421 19.04C302.788 19.04 301.504 18.5967 300.571 17.71ZM334.763 46.83C334.763 49.77 333.457 52.1733 330.843 54.04C328.277 55.9067 325.337 56.84 322.023 56.84C318.71 56.84 316.073 56.14 314.113 54.74C312.2 53.34 311.243 52.1033 311.243 51.03C311.243 50.3767 312.06 49.3267 313.693 47.88C315.327 46.3867 316.703 45.4767 317.823 45.15C320.157 46.8767 322.07 49.6067 323.563 53.34C325.29 53.2 326.153 52.3833 326.153 50.89C326.153 48.7433 324.263 45.71 320.483 41.79C316.703 37.8233 314.813 34.6733 314.813 32.34C314.813 30.0067 315.863 28.21 317.963 26.95C320.063 25.6433 322.583 24.99 325.523 24.99C328.51 24.99 330.75 25.5267 332.243 26.6C333.737 27.6267 334.483 29.05 334.483 30.87C334.483 32.6433 333.06 35.1167 330.213 38.29C330.54 38.6167 330.96 39.06 331.473 39.62C331.987 40.1333 332.663 41.1367 333.503 42.63C334.343 44.1233 334.763 45.5233 334.763 46.83ZM328.043 35.84C330.003 34.16 330.983 32.5033 330.983 30.87C330.983 29.2367 329.863 28.42 327.623 28.42C326.55 28.42 325.663 28.6533 324.963 29.12C324.263 29.54 323.913 30.03 323.913 30.59C323.913 31.6167 324.94 33.0633 326.993 34.93L328.043 35.84ZM359.926 25.83C359.833 26.9967 359.436 28.35 358.736 29.89C356.963 29.7033 355.283 29.61 353.696 29.61H352.436C350.289 40.0167 349.216 46.5033 349.216 49.07C349.216 50.4233 349.496 51.1 350.056 51.1C350.663 51.1 352.226 50.5167 354.746 49.35L356.006 51.66C351.853 55.1133 348.003 56.84 344.456 56.84C342.823 56.84 341.469 56.3267 340.396 55.3C339.369 54.2733 338.856 52.92 338.856 51.24C338.856 49.5133 339.043 47.5767 339.416 45.43C339.836 43.2833 340.396 40.67 341.096 37.59C341.796 34.4633 342.309 31.9433 342.636 30.03C340.909 30.17 339.626 30.31 338.786 30.45C338.693 29.89 338.646 29.1433 338.646 28.21C338.646 27.23 338.716 26.4367 338.856 25.83H343.266C343.639 23.31 343.826 20.93 343.826 18.69L343.756 16.52V16.31C347.396 15.05 350.826 14.42 354.046 14.42C354.233 15.3533 354.326 16.52 354.326 17.92C354.326 19.32 353.929 21.9567 353.136 25.83H359.926Z" fill="#F97316"/>
</svg>
