<svg width="489" height="61" viewBox="0 0 489 61" fill="none" xmlns="http://www.w3.org/2000/svg">
<path d="M31.25 4.75C26.825 4.75 22.925 7.675 21.675 11.925C20.35 11.325 18.95 11 17.5 11C14.8478 11 12.3043 12.0536 10.4289 13.9289C8.55357 15.8043 7.5 18.3478 7.5 21C7.50592 23.2146 8.24499 25.3649 9.6018 27.1152C10.9586 28.8655 12.8568 30.1172 15 30.675V48.5H47.5V30.675C51.9 29.525 55 25.55 55 21C55 18.3478 53.9464 15.8043 52.0711 13.9289C50.1957 12.0536 47.6522 11 45 11C43.55 11 42.15 11.325 40.825 11.925C39.575 7.675 35.675 4.75 31.25 4.75ZM30 27.25H32.5V44.75H30V27.25ZM22.5 32.25H25V44.75H22.5V32.25ZM37.5 32.25H40V44.75H37.5V32.25ZM15 51V53.5C15 54.163 15.2634 54.7989 15.7322 55.2678C16.2011 55.7366 16.837 56 17.5 56H45C45.663 56 46.2989 55.7366 46.7678 55.2678C47.2366 54.7989 47.5 54.163 47.5 53.5V51H15Z" fill="#F97316"/>
<path d="M131.93 54.69C128.897 56.79 126.05 57.84 123.39 57.84C120.73 57.84 118.84 57.21 117.72 55.95C116.647 54.69 116.11 53.0333 116.11 50.98C116.11 48.9267 117.207 43.6533 119.4 35.16C121.593 26.62 122.69 21.3233 122.69 19.27C122.69 16.7033 121.78 15.42 119.96 15.42C118.14 15.42 115.667 16.7733 112.54 19.48C112.447 19.8533 111.677 22.7 110.23 28.02C107.057 39.6867 105.353 49.09 105.12 56.23C103.3 56.93 100.01 57.28 95.25 57.28H94.34C94.34 54.3867 95.5767 47.7133 98.05 37.26C100.523 26.8067 101.76 20.7167 101.76 18.99C101.76 16.61 100.803 15.42 98.89 15.42C96.8367 15.42 94.1533 16.8667 90.84 19.76C90.84 29.28 89.16 38.1933 85.8 46.5C84.2133 50.42 82.1367 53.6167 79.57 56.09C77.05 58.5167 74.4367 59.73 71.73 59.73C69.07 59.73 66.97 58.9133 65.43 57.28C63.9367 55.6933 63.19 53.4767 63.19 50.63C63.19 47.7367 64.2167 44.3533 66.27 40.48C68.3233 36.56 70.4933 33.2233 72.78 30.47C75.1133 27.67 77.4933 25.15 79.92 22.91C79.92 18.6167 79.4067 16.0267 78.38 15.14C77.8667 14.72 77.12 14.51 76.14 14.51C75.2067 14.51 73.8067 14.93 71.94 15.77C70.12 16.61 68.37 17.7533 66.69 19.2L64.94 16.75C66.5733 14.7433 69.0233 12.8067 72.29 10.94C75.5567 9.07333 78.45 8.14 80.97 8.14C83.5367 8.14 85.5433 8.81667 86.99 10.17C88.4833 11.4767 89.5333 13.1567 90.14 15.21C96.58 9.93666 101.667 7.3 105.4 7.3C107.267 7.3 108.853 7.88333 110.16 9.05C111.513 10.2167 112.377 11.9667 112.75 14.3C118.257 9.63333 122.853 7.3 126.54 7.3C128.593 7.3 130.32 8.11666 131.72 9.75C133.167 11.3833 133.89 13.6 133.89 16.4C133.89 19.1533 132.747 24.73 130.46 33.13C128.173 41.53 127.03 46.85 127.03 49.09C127.03 51.2833 127.73 52.38 129.13 52.38C129.597 52.38 130.18 52.2633 130.88 52.03L131.93 54.69ZM70.4 53.08C72.2667 53.08 74.11 50.77 75.93 46.15C77.7967 41.4833 79.0567 35.65 79.71 28.65C76.7233 31.73 74.04 35.3933 71.66 39.64C69.28 43.84 68.09 47.13 68.09 49.51C68.09 51.89 68.86 53.08 70.4 53.08ZM152.555 30.33C152.555 32.29 151.925 35.6733 150.665 40.48C149.405 45.24 148.775 48.3667 148.775 49.86C148.775 51.3067 148.985 52.03 149.405 52.03C149.685 52.03 150.758 51.5867 152.625 50.7L153.465 50.28L154.655 52.73C154.235 53.1033 153.675 53.57 152.975 54.13C152.275 54.69 150.968 55.46 149.055 56.44C147.142 57.3733 145.368 57.84 143.735 57.84C142.102 57.84 140.818 57.35 139.885 56.37C138.952 55.3433 138.485 53.99 138.485 52.31C138.485 50.5833 139.068 47.55 140.235 43.21C141.402 38.8233 141.985 35.9767 141.985 34.67C141.985 32.71 141.378 30.8667 140.165 29.14L139.535 28.3L139.605 27.39C142.078 26.69 146.092 26.34 151.645 26.34C152.252 27.04 152.555 28.37 152.555 30.33ZM144.575 18.71C143.642 17.7767 143.175 16.54 143.175 15C143.175 13.46 143.805 12.1067 145.065 10.94C146.372 9.77333 147.865 9.19 149.545 9.19C151.225 9.19 152.532 9.65666 153.465 10.59C154.398 11.5233 154.865 12.76 154.865 14.3C154.865 15.7933 154.188 17.1233 152.835 18.29C151.528 19.4567 150.058 20.04 148.425 20.04C146.792 20.04 145.508 19.5967 144.575 18.71ZM165.047 10.8C165.047 9.26 164.907 8.16333 164.627 7.51C168.267 6.25 171.697 5.62 174.917 5.62C175.337 6.04 175.547 7.11333 175.547 8.84C175.547 12.7133 174.264 20.1333 171.697 31.1C175.85 27.6933 179.957 25.99 184.017 25.99C185.837 25.99 187.377 26.55 188.637 27.67C189.897 28.79 190.527 30.4233 190.527 32.57C190.527 36.5833 187.237 39.5 180.657 41.32C182.197 46.1733 183.55 49.4633 184.717 51.19C185.23 51.9367 185.604 52.31 185.837 52.31C186.35 52.31 187.424 51.9133 189.057 51.12L189.827 50.77L190.947 53.15C189.827 54.1767 188.264 55.2267 186.257 56.3C184.297 57.3267 182.5 57.84 180.867 57.84C177.227 57.84 174.684 54.5267 173.237 47.9C172.584 45.0533 172.187 42.3933 172.047 39.92C175.034 39.22 177.25 38.38 178.697 37.4C180.19 36.3733 180.937 35.09 180.937 33.55C180.937 31.9633 180.144 31.17 178.557 31.17C176.97 31.17 174.31 32.7567 170.577 35.93C168.244 45.7767 167.077 52.52 167.077 56.16C164.51 56.9067 161.174 57.28 157.067 57.28C157.02 56.4867 156.997 55.7867 156.997 55.18C156.997 53.1733 158.327 46.3133 160.987 34.6C163.694 22.8867 165.047 14.9533 165.047 10.8ZM200.874 10.8C200.874 9.26 200.734 8.16333 200.454 7.51C204.094 6.25 207.524 5.62 210.744 5.62C211.164 6.04 211.374 7.11333 211.374 8.84C211.374 11.92 210.067 19.0133 207.454 30.12C211.234 27.3667 214.547 25.99 217.394 25.99C219.167 25.99 220.497 26.55 221.384 27.67C222.317 28.79 222.784 30.2833 222.784 32.15C222.784 33.97 222.247 36.98 221.174 41.18C220.101 45.3333 219.564 48.18 219.564 49.72C219.564 51.26 219.751 52.03 220.124 52.03C220.497 52.03 221.477 51.61 223.064 50.77L223.904 50.35L225.164 52.8C224.744 53.1733 224.184 53.64 223.484 54.2C222.784 54.76 221.501 55.5067 219.634 56.44C217.767 57.3733 216.041 57.84 214.454 57.84C212.914 57.84 211.677 57.35 210.744 56.37C209.811 55.3433 209.344 53.99 209.344 52.31C209.344 50.5833 209.857 47.48 210.884 43C211.957 38.4733 212.494 35.6267 212.494 34.46C212.494 33.2467 212.004 32.64 211.024 32.64C209.811 32.64 208.294 33.1533 206.474 34.18C203.907 45.4733 202.624 52.8 202.624 56.16C200.664 56.9067 197.327 57.28 192.614 57.28C192.567 56.4867 192.544 55.7867 192.544 55.18C192.544 53.1733 193.921 46.3133 196.674 34.6C199.474 22.8867 200.874 14.9533 200.874 10.8ZM227.971 51.75C227.971 49.7433 228.577 46.3367 229.791 41.53C231.004 36.6767 231.611 33.7133 231.611 32.64C231.611 31.52 230.771 30.05 229.091 28.23L229.161 27.32C232.334 26.6667 236.511 26.34 241.691 26.34C241.924 26.9467 242.041 28.0433 242.041 29.63C242.041 31.2167 241.387 34.6 240.081 39.78C238.774 44.96 238.121 48.18 238.121 49.44C238.121 50.7 238.587 51.33 239.521 51.33C240.874 51.33 242.437 50.84 244.211 49.86C244.397 48.74 244.864 46.5933 245.611 43.42C247.291 35.9533 248.131 30.61 248.131 27.39C249.764 26.7367 252.704 26.41 256.951 26.41H258.281C258.281 28.6033 257.627 32.8967 256.321 39.29C255.014 45.6367 254.361 49.37 254.361 50.49C254.361 51.5633 254.594 52.1 255.061 52.1C255.341 52.1 256.671 51.54 259.051 50.42L260.381 52.66C256.227 56.1133 252.587 57.84 249.461 57.84C247.967 57.84 246.684 57.42 245.611 56.58C244.584 55.74 244.001 54.6433 243.861 53.29C240.081 56.37 236.651 57.91 233.571 57.91C231.937 57.91 230.584 57.3733 229.511 56.3C228.484 55.2267 227.971 53.71 227.971 51.75ZM264.232 57.21H262.902C262.902 55.0167 263.556 50.8167 264.862 44.61C266.216 38.4033 266.892 34.88 266.892 34.04C266.892 32.5 266.239 30.8667 264.932 29.14L264.302 28.3L264.372 27.39C266.892 26.69 270.929 26.34 276.482 26.34C277.089 27.1333 277.416 28.58 277.462 30.68C281.522 27.5533 284.952 25.99 287.752 25.99C289.432 25.99 290.762 26.5733 291.742 27.74C292.769 28.9067 293.282 30.3767 293.282 32.15C293.282 33.8767 292.746 36.8867 291.672 41.18C290.599 45.4733 290.062 48.3667 290.062 49.86C290.062 51.3067 290.249 52.03 290.622 52.03C290.902 52.03 291.882 51.5867 293.562 50.7L294.402 50.28L295.662 52.73C295.242 53.1033 294.682 53.57 293.982 54.13C293.282 54.69 291.976 55.46 290.062 56.44C288.196 57.3733 286.516 57.84 285.022 57.84C281.616 57.84 279.912 55.9033 279.912 52.03C279.912 50.3967 280.426 47.3867 281.452 43C282.526 38.6133 283.062 35.79 283.062 34.53C283.062 33.27 282.666 32.64 281.872 32.64C280.519 32.64 278.862 33.2233 276.902 34.39C276.762 35.1833 276.296 37.2833 275.502 40.69C273.869 48.0167 273.052 53.1967 273.052 56.23C271.419 56.8833 268.479 57.21 264.232 57.21ZM318.749 28.02C318.842 27.9267 319.099 27.32 319.519 26.2C321.712 26.2 324.652 26.8533 328.339 28.16C327.172 32.0333 326.239 36.0933 325.539 40.34C324.839 44.54 324.489 47.55 324.489 49.37C324.489 51.1433 324.676 52.03 325.049 52.03C325.329 52.03 326.356 51.5867 328.129 50.7L328.969 50.28L330.229 52.73C329.809 53.1033 329.249 53.57 328.549 54.13C327.896 54.69 326.636 55.46 324.769 56.44C322.902 57.3733 321.222 57.84 319.729 57.84C316.836 57.84 315.156 56.5333 314.689 53.92C311.702 56.5333 308.996 57.84 306.569 57.84C304.189 57.84 302.159 56.9067 300.479 55.04C298.846 53.1733 298.029 50.2333 298.029 46.22C298.029 39.9667 299.312 35.0433 301.879 31.45C304.446 27.81 307.549 25.99 311.189 25.99C313.802 25.99 316.322 26.6667 318.749 28.02ZM310.769 51.89C311.889 51.89 313.149 51.4467 314.549 50.56C314.876 43.98 315.972 37.47 317.839 31.03C316.439 30.4233 315.249 30.12 314.269 30.12C312.589 30.12 311.142 31.7767 309.929 35.09C308.762 38.3567 308.179 41.9733 308.179 45.94C308.179 49.9067 309.042 51.89 310.769 51.89ZM358.136 48.39L358.556 36.49C354.076 35.93 350.319 34.4133 347.286 31.94C344.252 29.4667 342.736 26.1533 342.736 22C342.736 18.5933 344.416 15.3033 347.776 12.13C351.136 8.91 355.149 7.3 359.816 7.3C366.676 7.3 370.106 11.7567 370.106 20.67C370.106 23.2833 369.919 27.2967 369.546 32.71C369.219 38.0767 369.056 42.1367 369.056 44.89C369.056 47.6433 369.802 49.02 371.296 49.02C372.182 49.02 373.466 48.2733 375.146 46.78C376.872 45.24 378.319 43.5833 379.486 41.81C380.512 31.2633 381.026 24.9633 381.026 22.91C381.026 20.8567 381.002 19.4567 380.956 18.71C380.956 17.9633 380.909 17.24 380.816 16.54C380.769 15.84 380.722 15.3267 380.676 15C380.676 14.6267 380.582 14.1367 380.396 13.53C380.256 12.9233 380.162 12.5733 380.116 12.48C380.116 12.3867 379.999 11.99 379.766 11.29C379.579 10.59 379.486 10.2167 379.486 10.17C381.866 8.91 385.762 7.95333 391.176 7.3V7.37C391.689 9.00333 391.946 11.36 391.946 14.44C391.946 17.4733 391.479 22.77 390.546 30.33C389.612 37.89 389.146 42.9067 389.146 45.38C389.146 47.8067 389.846 49.02 391.246 49.02C392.692 49.02 394.419 47.76 396.426 45.24C398.479 42.72 400.346 39.43 402.026 35.37C403.752 31.31 404.826 27.3667 405.246 23.54C405.246 19.76 403.262 15.3967 399.296 10.45C400.229 8.44333 401.442 6.64667 402.936 5.06C404.429 3.42667 405.689 2.30667 406.716 1.7L408.256 0.719999C409.982 0.719999 411.452 1.95666 412.666 4.43C413.926 6.85666 414.556 9.72666 414.556 13.04C414.556 16.3067 413.669 20.53 411.896 25.71C410.122 30.8433 407.882 35.79 405.176 40.55C402.516 45.31 399.366 49.3933 395.726 52.8C392.132 56.16 388.702 57.84 385.436 57.84C383.756 57.84 382.286 57 381.026 55.32C379.766 53.64 379.112 51.4933 379.066 48.88C377.059 51.68 374.936 53.8733 372.696 55.46C370.456 57.0467 368.216 57.84 365.976 57.84C363.736 57.84 361.869 56.93 360.376 55.11C358.882 53.29 358.136 51.05 358.136 48.39ZM359.186 20.81C359.186 17.9167 358.906 15.9567 358.346 14.93C357.832 13.8567 356.806 13.32 355.266 13.32C353.772 13.32 352.022 14.16 350.016 15.84C348.056 17.52 347.076 19.7133 347.076 22.42C347.076 25.1267 348.242 27.3667 350.576 29.14C352.956 30.9133 355.709 31.8 358.836 31.8C359.069 27.3667 359.186 23.7033 359.186 20.81ZM434.345 28.02C434.438 27.9267 434.695 27.32 435.115 26.2C437.308 26.2 440.248 26.8533 443.935 28.16C442.768 32.0333 441.835 36.0933 441.135 40.34C440.435 44.54 440.085 47.55 440.085 49.37C440.085 51.1433 440.271 52.03 440.645 52.03C440.925 52.03 441.951 51.5867 443.725 50.7L444.565 50.28L445.825 52.73C445.405 53.1033 444.845 53.57 444.145 54.13C443.491 54.69 442.231 55.46 440.365 56.44C438.498 57.3733 436.818 57.84 435.325 57.84C432.431 57.84 430.751 56.5333 430.285 53.92C427.298 56.5333 424.591 57.84 422.165 57.84C419.785 57.84 417.755 56.9067 416.075 55.04C414.441 53.1733 413.625 50.2333 413.625 46.22C413.625 39.9667 414.908 35.0433 417.475 31.45C420.041 27.81 423.145 25.99 426.785 25.99C429.398 25.99 431.918 26.6667 434.345 28.02ZM426.365 51.89C427.485 51.89 428.745 51.4467 430.145 50.56C430.471 43.98 431.568 37.47 433.435 31.03C432.035 30.4233 430.845 30.12 429.865 30.12C428.185 30.12 426.738 31.7767 425.525 35.09C424.358 38.3567 423.775 41.9733 423.775 45.94C423.775 49.9067 424.638 51.89 426.365 51.89ZM467.927 47.83C467.927 50.77 466.621 53.1733 464.007 55.04C461.441 56.9067 458.501 57.84 455.187 57.84C451.874 57.84 449.237 57.14 447.277 55.74C445.364 54.34 444.407 53.1033 444.407 52.03C444.407 51.3767 445.224 50.3267 446.857 48.88C448.491 47.3867 449.867 46.4767 450.987 46.15C453.321 47.8767 455.234 50.6067 456.727 54.34C458.454 54.2 459.317 53.3833 459.317 51.89C459.317 49.7433 457.427 46.71 453.647 42.79C449.867 38.8233 447.977 35.6733 447.977 33.34C447.977 31.0067 449.027 29.21 451.127 27.95C453.227 26.6433 455.747 25.99 458.687 25.99C461.674 25.99 463.914 26.5267 465.407 27.6C466.901 28.6267 467.647 30.05 467.647 31.87C467.647 33.6433 466.224 36.1167 463.377 39.29C463.704 39.6167 464.124 40.06 464.637 40.62C465.151 41.1333 465.827 42.1367 466.667 43.63C467.507 45.1233 467.927 46.5233 467.927 47.83ZM461.207 36.84C463.167 35.16 464.147 33.5033 464.147 31.87C464.147 30.2367 463.027 29.42 460.787 29.42C459.714 29.42 458.827 29.6533 458.127 30.12C457.427 30.54 457.077 31.03 457.077 31.59C457.077 32.6167 458.104 34.0633 460.157 35.93L461.207 36.84ZM485.67 30.33C485.67 32.29 485.04 35.6733 483.78 40.48C482.52 45.24 481.89 48.3667 481.89 49.86C481.89 51.3067 482.1 52.03 482.52 52.03C482.8 52.03 483.873 51.5867 485.74 50.7L486.58 50.28L487.77 52.73C487.35 53.1033 486.79 53.57 486.09 54.13C485.39 54.69 484.083 55.46 482.17 56.44C480.257 57.3733 478.483 57.84 476.85 57.84C475.217 57.84 473.933 57.35 473 56.37C472.067 55.3433 471.6 53.99 471.6 52.31C471.6 50.5833 472.183 47.55 473.35 43.21C474.517 38.8233 475.1 35.9767 475.1 34.67C475.1 32.71 474.493 30.8667 473.28 29.14L472.65 28.3L472.72 27.39C475.193 26.69 479.207 26.34 484.76 26.34C485.367 27.04 485.67 28.37 485.67 30.33ZM477.69 18.71C476.757 17.7767 476.29 16.54 476.29 15C476.29 13.46 476.92 12.1067 478.18 10.94C479.487 9.77333 480.98 9.19 482.66 9.19C484.34 9.19 485.647 9.65666 486.58 10.59C487.513 11.5233 487.98 12.76 487.98 14.3C487.98 15.7933 487.303 17.1233 485.95 18.29C484.643 19.4567 483.173 20.04 481.54 20.04C479.907 20.04 478.623 19.5967 477.69 18.71Z" fill="#F97316"/>
</svg>
