<svg width="158" height="70" viewBox="0 0 133 37" fill="none" xmlns="http://www.w3.org/2000/svg">
<path d="M10.4167 9.75C8.94167 9.75 7.64167 10.725 7.225 12.1417C6.78333 11.9417 6.31667 11.8333 5.83333 11.8333C4.94928 11.8333 4.10143 12.1845 3.47631 12.8096C2.85119 13.4348 2.5 14.2826 2.5 15.1667C2.50197 15.9049 2.74833 16.6216 3.2006 17.2051C3.65287 17.7885 4.2856 18.2057 5 18.3917V24.3333H15.8333V18.3917C17.3 18.0083 18.3333 16.6833 18.3333 15.1667C18.3333 14.2826 17.9821 13.4348 17.357 12.8096C16.7319 12.1845 15.8841 11.8333 15 11.8333C14.5167 11.8333 14.05 11.9417 13.6083 12.1417C13.1917 10.725 11.8917 9.75 10.4167 9.75ZM10 17.25H10.8333V23.0833H10V17.25ZM7.5 18.9167H8.33333V23.0833H7.5V18.9167ZM12.5 18.9167H13.3333V23.0833H12.5V18.9167ZM5 25.1667V26C5 26.221 5.0878 26.433 5.24408 26.5893C5.40036 26.7455 5.61232 26.8333 5.83333 26.8333H15C15.221 26.8333 15.433 26.7455 15.5893 26.5893C15.7455 26.433 15.8333 26.221 15.8333 26V25.1667H5Z" fill="#F97316"/>
<path d="M38.614 12.07C37.7473 11.3767 36.742 11.03 35.598 11.03C34.4713 11.03 32.998 11.2553 31.178 11.706C31.4553 12.6593 31.594 13.63 31.594 14.618C31.594 15.606 31.568 16.4033 31.516 17.01C32.2613 16.8713 33.0067 16.802 33.752 16.802C34.4973 16.802 35.2253 16.9407 35.936 17.218C35.936 17.9807 35.78 18.5787 35.468 19.012C34.688 18.7173 33.7867 18.57 32.764 18.57C32.4693 18.57 31.9927 18.622 31.334 18.726C30.9353 21.4127 30.1467 23.5533 28.968 25.148C27.8067 26.7253 26.4373 27.514 24.86 27.514C23.9067 27.514 23.1353 27.228 22.546 26.656C21.9567 26.084 21.662 25.3213 21.662 24.368C21.662 23.068 22.1993 21.8373 23.274 20.676C24.366 19.4973 25.796 18.5613 27.564 17.868C27.6853 17.348 27.746 16.5853 27.746 15.58C27.746 14.5573 27.6507 13.6647 27.46 12.902C27.0267 13.006 26.5413 13.058 26.004 13.058C24.9813 13.058 24.1667 12.824 23.56 12.356C22.9707 11.888 22.676 11.29 22.676 10.562C22.676 9.81667 23.0227 9.21 23.716 8.742C24.4093 8.274 25.3107 8.04 26.42 8.04C28.1013 8.04 29.4013 8.69 30.32 9.99C31.672 9.262 32.634 8.75933 33.206 8.482C34.61 7.77133 35.754 7.416 36.638 7.416C37.5393 7.416 38.25 7.82333 38.77 8.638C39.29 9.45267 39.55 10.3713 39.55 11.394C39.4807 11.5327 39.1687 11.758 38.614 12.07ZM24.47 25.018C25.094 25.018 25.6573 24.5153 26.16 23.51C26.6627 22.5047 27.0353 21.274 27.278 19.818C26.2207 20.234 25.328 20.8407 24.6 21.638C23.8893 22.4353 23.534 23.1893 23.534 23.9C23.534 24.2467 23.6207 24.524 23.794 24.732C23.9673 24.9227 24.1927 25.018 24.47 25.018ZM24.626 10.77C24.626 11.0473 24.7647 11.264 25.042 11.42C25.3367 11.5587 25.6573 11.628 26.004 11.628C26.3507 11.628 26.6627 11.576 26.94 11.472C26.5067 10.6227 25.9607 10.198 25.302 10.198C24.8513 10.198 24.626 10.3887 24.626 10.77ZM40.918 26.812C39.722 26.812 38.786 26.396 38.11 25.564C37.434 24.7147 37.096 23.536 37.096 22.028C37.096 20.104 37.6074 18.4487 38.63 17.062C39.67 15.6753 41.1 14.982 42.92 14.982L43.856 15.034C44.1507 14.878 44.48 14.8 44.844 14.8C46.2134 14.8 46.898 16.0913 46.898 18.674C47.6087 18.6393 48.328 18.544 49.056 18.388L49.472 18.284L49.628 19.298C49.056 19.5407 48.2847 19.7573 47.314 19.948L46.794 20.052C46.4647 21.872 45.7974 23.458 44.792 24.81C43.7867 26.1447 42.4954 26.812 40.918 26.812ZM42.322 24.576C43.05 24.576 43.7 24.108 44.272 23.172C44.8614 22.236 45.2687 21.248 45.494 20.208C43.6394 20.208 42.712 19.5147 42.712 18.128C42.712 17.5733 42.8247 17.0533 43.05 16.568L43.18 16.308C43.1107 16.2733 43.024 16.256 42.92 16.256C42.816 16.256 42.738 16.2733 42.686 16.308C42.2527 16.5853 41.8454 17.2353 41.464 18.258C41.0827 19.2807 40.892 20.4507 40.892 21.768C40.892 23.64 41.3687 24.576 42.322 24.576ZM51.8106 26.812C50.6146 26.812 49.6786 26.396 49.0026 25.564C48.3266 24.7147 47.9886 23.536 47.9886 22.028C47.9886 20.104 48.5 18.4487 49.5226 17.062C50.5626 15.6753 51.9926 14.982 53.8126 14.982L54.7486 15.034C55.0433 14.878 55.3726 14.8 55.7366 14.8C57.106 14.8 57.7906 16.0913 57.7906 18.674C58.5013 18.6393 59.2206 18.544 59.9486 18.388L60.3646 18.284L60.5206 19.298C59.9486 19.5407 59.1773 19.7573 58.2066 19.948L57.6866 20.052C57.3573 21.872 56.69 23.458 55.6846 24.81C54.6793 26.1447 53.388 26.812 51.8106 26.812ZM53.2146 24.576C53.9426 24.576 54.5926 24.108 55.1646 23.172C55.754 22.236 56.1613 21.248 56.3866 20.208C54.532 20.208 53.6046 19.5147 53.6046 18.128C53.6046 17.5733 53.7173 17.0533 53.9426 16.568L54.0726 16.308C54.0033 16.2733 53.9166 16.256 53.8126 16.256C53.7086 16.256 53.6306 16.2733 53.5786 16.308C53.1453 16.5853 52.738 17.2353 52.3566 18.258C51.9753 19.2807 51.7846 20.4507 51.7846 21.768C51.7846 23.64 52.2613 24.576 53.2146 24.576ZM71.1333 24.914C69.66 26.1793 68.36 26.812 67.2333 26.812C66.124 26.812 65.4826 26.2573 65.3093 25.148C64.7893 25.668 64.2086 26.0753 63.5673 26.37C62.926 26.6647 62.3626 26.812 61.8773 26.812C61.0453 26.812 60.3346 26.448 59.7453 25.72C59.156 24.992 58.8613 23.8653 58.8613 22.34C58.8613 20.052 59.3466 18.258 60.3173 16.958C61.288 15.6407 62.38 14.982 63.5933 14.982C64.824 14.982 65.8553 15.2593 66.6873 15.814C67.2246 13.006 67.4933 10.796 67.4933 9.184L67.3633 8.092C68.6633 7.64133 69.9373 7.416 71.1853 7.416C71.324 7.71067 71.3933 8.04867 71.3933 8.43C71.3933 9.69533 71.012 12.2693 70.2493 16.152C69.4866 20.0173 69.1053 22.6433 69.1053 24.03C69.1053 24.446 69.2006 24.654 69.3913 24.654C69.4953 24.654 69.8246 24.4893 70.3793 24.16L70.6393 24.004L71.1333 24.914ZM64.8673 16.516C64.2606 16.516 63.732 17.114 63.2813 18.31C62.848 19.506 62.6313 20.6933 62.6313 21.872C62.6313 23.0333 62.7093 23.7787 62.8653 24.108C63.0386 24.4373 63.29 24.602 63.6193 24.602C64.1913 24.602 64.7546 24.368 65.3093 23.9C65.3613 23.2067 65.7513 20.9013 66.4793 16.984C65.89 16.672 65.3526 16.516 64.8673 16.516ZM77.2421 16.594C77.2421 17.322 77.0081 18.5787 76.5401 20.364C76.0721 22.132 75.8381 23.2933 75.8381 23.848C75.8381 24.3853 75.9161 24.654 76.0721 24.654C76.1761 24.654 76.5747 24.4893 77.2681 24.16L77.5801 24.004L78.0221 24.914C77.8661 25.0527 77.6581 25.226 77.3981 25.434C77.1381 25.642 76.6527 25.928 75.9421 26.292C75.2314 26.6387 74.5727 26.812 73.9661 26.812C73.3594 26.812 72.8827 26.63 72.5361 26.266C72.1894 25.8847 72.0161 25.382 72.0161 24.758C72.0161 24.1167 72.2327 22.99 72.6661 21.378C73.0994 19.7487 73.3161 18.6913 73.3161 18.206C73.3161 17.478 73.0907 16.7933 72.6401 16.152L72.4061 15.84L72.4321 15.502C73.3507 15.242 74.8414 15.112 76.9041 15.112C77.1294 15.372 77.2421 15.866 77.2421 16.594ZM74.2781 12.278C73.9314 11.9313 73.7581 11.472 73.7581 10.9C73.7581 10.328 73.9921 9.82533 74.4601 9.392C74.9454 8.95867 75.5001 8.742 76.1241 8.742C76.7481 8.742 77.2334 8.91533 77.5801 9.262C77.9267 9.60867 78.1001 10.068 78.1001 10.64C78.1001 11.1947 77.8487 11.6887 77.3461 12.122C76.8607 12.5553 76.3147 12.772 75.7081 12.772C75.1014 12.772 74.6247 12.6073 74.2781 12.278ZM78.8401 22.002C78.8401 19.8353 79.4901 18.128 80.7901 16.88C82.1074 15.6147 83.5981 14.982 85.2621 14.982C86.2847 14.982 87.1254 15.2333 87.7841 15.736C88.4427 16.2387 88.7721 16.9147 88.7721 17.764C88.7721 18.596 88.5554 19.298 88.1221 19.87C87.7061 20.442 87.1947 20.884 86.5881 21.196C85.3574 21.8027 84.2307 22.184 83.2081 22.34L82.5841 22.418C82.7054 24.0473 83.3727 24.862 84.5861 24.862C85.0021 24.862 85.4441 24.758 85.9121 24.55C86.3801 24.342 86.7441 24.134 87.0041 23.926L87.3941 23.614L88.0181 24.446C87.8794 24.6367 87.6021 24.888 87.1861 25.2C86.7701 25.512 86.3801 25.772 86.0161 25.98C85.0107 26.5347 83.9101 26.812 82.7141 26.812C81.5181 26.812 80.5734 26.3873 79.8801 25.538C79.1867 24.6887 78.8401 23.51 78.8401 22.002ZM82.5581 21.144C83.4421 20.988 84.1441 20.6153 84.6641 20.026C85.1841 19.4367 85.4441 18.674 85.4441 17.738C85.4441 16.802 85.1667 16.334 84.6121 16.334C83.9534 16.334 83.4421 16.8973 83.0781 18.024C82.7314 19.1333 82.5581 20.1733 82.5581 21.144ZM108.886 27.956C108.626 28.5107 108.21 29.0133 107.638 29.464C107.083 29.932 106.485 30.166 105.844 30.166C105.203 30.166 104.57 29.984 103.946 29.62C103.339 29.2733 102.845 28.918 102.464 28.554C102.083 28.19 101.537 27.6267 100.826 26.864C100.133 26.1013 99.6559 25.59 99.3959 25.33C98.4772 26.318 97.3592 26.812 96.0419 26.812C95.1752 26.812 94.4646 26.5953 93.9099 26.162C93.3552 25.7287 93.0779 25.1567 93.0779 24.446C93.0779 23.718 93.3726 23.1027 93.9619 22.6C94.5686 22.08 95.3746 21.82 96.3799 21.82C96.9519 21.82 97.5239 21.9153 98.0959 22.106C98.2692 21.2567 98.4079 20.052 98.5119 18.492C97.4546 18.3013 96.5879 17.8593 95.9119 17.166C95.2532 16.4553 94.9239 15.476 94.9239 14.228C94.9239 13.7427 95.0019 13.1273 95.1579 12.382C95.3486 12.3473 95.5999 12.33 95.9119 12.33C96.2239 12.33 96.5446 12.4513 96.8739 12.694C96.6486 13.11 96.5359 13.6647 96.5359 14.358C96.5359 15.762 97.2206 16.6287 98.5899 16.958C98.6592 15.0687 98.7632 13.7427 98.9019 12.98C99.0406 12.2 99.2832 11.4633 99.6299 10.77C99.9766 10.0593 100.549 9.42667 101.346 8.872C102.161 8.31733 103.192 8.04 104.44 8.04C105.688 8.04 106.65 8.41267 107.326 9.158C108.019 9.886 108.366 10.7527 108.366 11.758C108.366 13.162 107.716 14.5833 106.416 16.022C105.133 17.4433 103.539 18.31 101.632 18.622C101.095 20.962 100.705 22.548 100.462 23.38C100.739 23.588 101.242 23.978 101.97 24.55C102.715 25.122 103.279 25.5467 103.66 25.824C104.059 26.084 104.587 26.344 105.246 26.604C105.922 26.8813 106.572 27.02 107.196 27.02L108.288 26.942C108.583 27.358 108.782 27.696 108.886 27.956ZM106.624 11.992C106.624 11.472 106.485 11.0473 106.208 10.718C105.948 10.3887 105.593 10.224 105.142 10.224C103.981 10.224 103.131 11.4893 102.594 14.02C102.299 15.4067 102.091 16.412 101.97 17.036C103.253 16.8107 104.345 16.178 105.246 15.138C106.165 14.0807 106.624 13.032 106.624 11.992ZM95.8079 24.862C96.4146 24.862 96.9519 24.5327 97.4199 23.874C96.9172 23.562 96.4146 23.406 95.9119 23.406C95.1666 23.406 94.7939 23.6487 94.7939 24.134C94.7939 24.3767 94.8979 24.5587 95.1059 24.68C95.3139 24.8013 95.5479 24.862 95.8079 24.862ZM113.576 16.594C113.576 17.322 113.342 18.5787 112.874 20.364C112.406 22.132 112.172 23.2933 112.172 23.848C112.172 24.3853 112.25 24.654 112.406 24.654C112.51 24.654 112.909 24.4893 113.602 24.16L113.914 24.004L114.356 24.914C114.2 25.0527 113.992 25.226 113.732 25.434C113.472 25.642 112.987 25.928 112.276 26.292C111.565 26.6387 110.907 26.812 110.3 26.812C109.693 26.812 109.217 26.63 108.87 26.266C108.523 25.8847 108.35 25.382 108.35 24.758C108.35 24.1167 108.567 22.99 109 21.378C109.433 19.7487 109.65 18.6913 109.65 18.206C109.65 17.478 109.425 16.7933 108.974 16.152L108.74 15.84L108.766 15.502C109.685 15.242 111.175 15.112 113.238 15.112C113.463 15.372 113.576 15.866 113.576 16.594ZM110.612 12.278C110.265 11.9313 110.092 11.472 110.092 10.9C110.092 10.328 110.326 9.82533 110.794 9.392C111.279 8.95867 111.834 8.742 112.458 8.742C113.082 8.742 113.567 8.91533 113.914 9.262C114.261 9.60867 114.434 10.068 114.434 10.64C114.434 11.1947 114.183 11.6887 113.68 12.122C113.195 12.5553 112.649 12.772 112.042 12.772C111.435 12.772 110.959 12.6073 110.612 12.278ZM123.312 23.094C123.312 24.186 122.827 25.0787 121.856 25.772C120.903 26.4653 119.811 26.812 118.58 26.812C117.349 26.812 116.37 26.552 115.642 26.032C114.931 25.512 114.576 25.0527 114.576 24.654C114.576 24.4113 114.879 24.0213 115.486 23.484C116.093 22.9293 116.604 22.5913 117.02 22.47C117.887 23.1113 118.597 24.1253 119.152 25.512C119.793 25.46 120.114 25.1567 120.114 24.602C120.114 23.8047 119.412 22.678 118.008 21.222C116.604 19.7487 115.902 18.5787 115.902 17.712C115.902 16.8453 116.292 16.178 117.072 15.71C117.852 15.2247 118.788 14.982 119.88 14.982C120.989 14.982 121.821 15.1813 122.376 15.58C122.931 15.9613 123.208 16.49 123.208 17.166C123.208 17.8247 122.679 18.7433 121.622 19.922C121.743 20.0433 121.899 20.208 122.09 20.416C122.281 20.6067 122.532 20.9793 122.844 21.534C123.156 22.0887 123.312 22.6087 123.312 23.094ZM120.816 19.012C121.544 18.388 121.908 17.7727 121.908 17.166C121.908 16.5593 121.492 16.256 120.66 16.256C120.261 16.256 119.932 16.3427 119.672 16.516C119.412 16.672 119.282 16.854 119.282 17.062C119.282 17.4433 119.663 17.9807 120.426 18.674L120.816 19.012ZM132.658 15.294C132.624 15.7273 132.476 16.23 132.216 16.802C131.558 16.7327 130.934 16.698 130.344 16.698H129.876C129.079 20.5633 128.68 22.9727 128.68 23.926C128.68 24.4287 128.784 24.68 128.992 24.68C129.218 24.68 129.798 24.4633 130.734 24.03L131.202 24.888C129.66 26.1707 128.23 26.812 126.912 26.812C126.306 26.812 125.803 26.6213 125.404 26.24C125.023 25.8587 124.832 25.356 124.832 24.732C124.832 24.0907 124.902 23.3713 125.04 22.574C125.196 21.7767 125.404 20.806 125.664 19.662C125.924 18.5007 126.115 17.5647 126.236 16.854C125.595 16.906 125.118 16.958 124.806 17.01C124.772 16.802 124.754 16.5247 124.754 16.178C124.754 15.814 124.78 15.5193 124.832 15.294H126.47C126.609 14.358 126.678 13.474 126.678 12.642L126.652 11.836V11.758C128.004 11.29 129.278 11.056 130.474 11.056C130.544 11.4027 130.578 11.836 130.578 12.356C130.578 12.876 130.431 13.8553 130.136 15.294H132.658Z" fill="#F97316"/>
</svg>
