<svg width="29" height="30" viewBox="0 0 24 25" fill="none" xmlns="http://www.w3.org/2000/svg">
<path d="M12.5 2C10.73 2 9.17 3.17 8.67 4.87C8.14 4.63 7.58 4.5 7 4.5C5.93913 4.5 4.92172 4.92143 4.17157 5.67157C3.42143 6.42172 3 7.43913 3 8.5C3.00237 9.38584 3.29799 10.246 3.84072 10.9461C4.38344 11.6462 5.14272 12.1469 6 12.37V19.5H19V12.37C20.76 11.91 22 10.32 22 8.5C22 7.43913 21.5786 6.42172 20.8284 5.67157C20.0783 4.92143 19.0609 4.5 18 4.5C17.42 4.5 16.86 4.63 16.33 4.87C15.83 3.17 14.27 2 12.5 2ZM12 11H13V18H12V11ZM9 13H10V18H9V13ZM15 13H16V18H15V13ZM6 20.5V21.5C6 21.7652 6.10536 22.0196 6.29289 22.2071C6.48043 22.3946 6.73478 22.5 7 22.5H18C18.2652 22.5 18.5196 22.3946 18.7071 22.2071C18.8946 22.0196 19 21.7652 19 21.5V20.5H6Z" fill="#F97316"/>
</svg>
