<svg width="376" height="60" viewBox="0 0 376 60" fill="none" xmlns="http://www.w3.org/2000/svg">
<path d="M31.25 3.75C26.825 3.75 22.925 6.675 21.675 10.925C20.35 10.325 18.95 10 17.5 10C14.8478 10 12.3043 11.0536 10.4289 12.9289C8.55357 14.8043 7.5 17.3478 7.5 20C7.50592 22.2146 8.24499 24.3649 9.6018 26.1152C10.9586 27.8655 12.8568 29.1172 15 29.675V47.5H47.5V29.675C51.9 28.525 55 24.55 55 20C55 17.3478 53.9464 14.8043 52.0711 12.9289C50.1957 11.0536 47.6522 10 45 10C43.55 10 42.15 10.325 40.825 10.925C39.575 6.675 35.675 3.75 31.25 3.75ZM30 26.25H32.5V43.75H30V26.25ZM22.5 31.25H25V43.75H22.5V31.25ZM37.5 31.25H40V43.75H37.5V31.25ZM15 50V52.5C15 53.163 15.2634 53.7989 15.7322 54.2678C16.2011 54.7366 16.837 55 17.5 55H45C45.663 55 46.2989 54.7366 46.7678 54.2678C47.2366 53.7989 47.5 53.163 47.5 52.5V50H15Z" fill="#F97316"/>
<path d="M106.73 17.15C104.397 15.2833 101.69 14.35 98.61 14.35C95.5767 14.35 91.61 14.9567 86.71 16.17C87.4567 18.7367 87.83 21.35 87.83 24.01C87.83 26.67 87.76 28.8167 87.62 30.45C89.6267 30.0767 91.6333 29.89 93.64 29.89C95.6467 29.89 97.6067 30.2633 99.52 31.01C99.52 33.0633 99.1 34.6733 98.26 35.84C96.16 35.0467 93.7333 34.65 90.98 34.65C90.1867 34.65 88.9033 34.79 87.13 35.07C86.0567 42.3033 83.9333 48.0667 80.76 52.36C77.6333 56.6067 73.9467 58.73 69.7 58.73C67.1333 58.73 65.0567 57.96 63.47 56.42C61.8833 54.88 61.09 52.8267 61.09 50.26C61.09 46.76 62.5367 43.4467 65.43 40.32C68.37 37.1467 72.22 34.6267 76.98 32.76C77.3067 31.36 77.47 29.3067 77.47 26.6C77.47 23.8467 77.2133 21.4433 76.7 19.39C75.5333 19.67 74.2267 19.81 72.78 19.81C70.0267 19.81 67.8333 19.18 66.2 17.92C64.6133 16.66 63.82 15.05 63.82 13.09C63.82 11.0833 64.7533 9.45 66.62 8.19C68.4867 6.93 70.9133 6.3 73.9 6.3C78.4267 6.3 81.9267 8.05 84.4 11.55C88.04 9.59 90.63 8.23666 92.17 7.49C95.95 5.57666 99.03 4.62 101.41 4.62C103.837 4.62 105.75 5.71666 107.15 7.91C108.55 10.1033 109.25 12.5767 109.25 15.33C109.063 15.7033 108.223 16.31 106.73 17.15ZM68.65 52.01C70.33 52.01 71.8467 50.6567 73.2 47.95C74.5533 45.2433 75.5567 41.93 76.21 38.01C73.3633 39.13 70.96 40.7633 69 42.91C67.0867 45.0567 66.13 47.0867 66.13 49C66.13 49.9333 66.3633 50.68 66.83 51.24C67.2967 51.7533 67.9033 52.01 68.65 52.01ZM69.07 13.65C69.07 14.3967 69.4433 14.98 70.19 15.4C70.9833 15.7733 71.8467 15.96 72.78 15.96C73.7133 15.96 74.5533 15.82 75.3 15.54C74.1333 13.2533 72.6633 12.11 70.89 12.11C69.6767 12.11 69.07 12.6233 69.07 13.65ZM112.933 56.84C109.713 56.84 107.193 55.72 105.373 53.48C103.553 51.1933 102.643 48.02 102.643 43.96C102.643 38.78 104.02 34.3233 106.773 30.59C109.573 26.8567 113.423 24.99 118.323 24.99L120.843 25.13C121.637 24.71 122.523 24.5 123.503 24.5C127.19 24.5 129.033 27.9767 129.033 34.93C130.947 34.8367 132.883 34.58 134.843 34.16L135.963 33.88L136.383 36.61C134.843 37.2633 132.767 37.8467 130.153 38.36L128.753 38.64C127.867 43.54 126.07 47.81 123.363 51.45C120.657 55.0433 117.18 56.84 112.933 56.84ZM116.713 50.82C118.673 50.82 120.423 49.56 121.963 47.04C123.55 44.52 124.647 41.86 125.253 39.06C120.26 39.06 117.763 37.1933 117.763 33.46C117.763 31.9667 118.067 30.5667 118.673 29.26L119.023 28.56C118.837 28.4667 118.603 28.42 118.323 28.42C118.043 28.42 117.833 28.4667 117.693 28.56C116.527 29.3067 115.43 31.0567 114.403 33.81C113.377 36.5633 112.863 39.7133 112.863 43.26C112.863 48.3 114.147 50.82 116.713 50.82ZM142.259 56.84C139.039 56.84 136.519 55.72 134.699 53.48C132.879 51.1933 131.969 48.02 131.969 43.96C131.969 38.78 133.346 34.3233 136.099 30.59C138.899 26.8567 142.749 24.99 147.649 24.99L150.169 25.13C150.963 24.71 151.849 24.5 152.829 24.5C156.516 24.5 158.359 27.9767 158.359 34.93C160.273 34.8367 162.209 34.58 164.169 34.16L165.289 33.88L165.709 36.61C164.169 37.2633 162.093 37.8467 159.479 38.36L158.079 38.64C157.193 43.54 155.396 47.81 152.689 51.45C149.983 55.0433 146.506 56.84 142.259 56.84ZM146.039 50.82C147.999 50.82 149.749 49.56 151.289 47.04C152.876 44.52 153.973 41.86 154.579 39.06C149.586 39.06 147.089 37.1933 147.089 33.46C147.089 31.9667 147.393 30.5667 147.999 29.26L148.349 28.56C148.163 28.4667 147.929 28.42 147.649 28.42C147.369 28.42 147.159 28.4667 147.019 28.56C145.853 29.3067 144.756 31.0567 143.729 33.81C142.703 36.5633 142.189 39.7133 142.189 43.26C142.189 48.3 143.473 50.82 146.039 50.82ZM194.282 51.73C190.315 55.1367 186.815 56.84 183.782 56.84C180.795 56.84 179.069 55.3467 178.602 52.36C177.202 53.76 175.639 54.8567 173.912 55.65C172.185 56.4433 170.669 56.84 169.362 56.84C167.122 56.84 165.209 55.86 163.622 53.9C162.035 51.94 161.242 48.9067 161.242 44.8C161.242 38.64 162.549 33.81 165.162 30.31C167.775 26.7633 170.715 24.99 173.982 24.99C177.295 24.99 180.072 25.7367 182.312 27.23C183.759 19.67 184.482 13.72 184.482 9.38L184.132 6.44C187.632 5.22667 191.062 4.62 194.422 4.62C194.795 5.41333 194.982 6.32333 194.982 7.35C194.982 10.7567 193.955 17.6867 191.902 28.14C189.849 38.5467 188.822 45.6167 188.822 49.35C188.822 50.47 189.079 51.03 189.592 51.03C189.872 51.03 190.759 50.5867 192.252 49.7L192.952 49.28L194.282 51.73ZM177.412 29.12C175.779 29.12 174.355 30.73 173.142 33.95C171.975 37.17 171.392 40.3667 171.392 43.54C171.392 46.6667 171.602 48.6733 172.022 49.56C172.489 50.4467 173.165 50.89 174.052 50.89C175.592 50.89 177.109 50.26 178.602 49C178.742 47.1333 179.792 40.9267 181.752 30.38C180.165 29.54 178.719 29.12 177.412 29.12ZM210.729 29.33C210.729 31.29 210.099 34.6733 208.839 39.48C207.579 44.24 206.949 47.3667 206.949 48.86C206.949 50.3067 207.159 51.03 207.579 51.03C207.859 51.03 208.932 50.5867 210.799 49.7L211.639 49.28L212.829 51.73C212.409 52.1033 211.849 52.57 211.149 53.13C210.449 53.69 209.142 54.46 207.229 55.44C205.315 56.3733 203.542 56.84 201.909 56.84C200.275 56.84 198.992 56.35 198.059 55.37C197.125 54.3433 196.659 52.99 196.659 51.31C196.659 49.5833 197.242 46.55 198.409 42.21C199.575 37.8233 200.159 34.9767 200.159 33.67C200.159 31.71 199.552 29.8667 198.339 28.14L197.709 27.3L197.779 26.39C200.252 25.69 204.265 25.34 209.819 25.34C210.425 26.04 210.729 27.37 210.729 29.33ZM202.749 17.71C201.815 16.7767 201.349 15.54 201.349 14C201.349 12.46 201.979 11.1067 203.239 9.94C204.545 8.77333 206.039 8.19 207.719 8.19C209.399 8.19 210.705 8.65666 211.639 9.59C212.572 10.5233 213.039 11.76 213.039 13.3C213.039 14.7933 212.362 16.1233 211.009 17.29C209.702 18.4567 208.232 19.04 206.599 19.04C204.965 19.04 203.682 18.5967 202.749 17.71ZM215.031 43.89C215.031 38.0567 216.781 33.46 220.281 30.1C223.828 26.6933 227.841 24.99 232.321 24.99C235.074 24.99 237.338 25.6667 239.111 27.02C240.884 28.3733 241.771 30.1933 241.771 32.48C241.771 34.72 241.188 36.61 240.021 38.15C238.901 39.69 237.524 40.88 235.891 41.72C232.578 43.3533 229.544 44.38 226.791 44.8L225.111 45.01C225.438 49.3967 227.234 51.59 230.501 51.59C231.621 51.59 232.811 51.31 234.071 50.75C235.331 50.19 236.311 49.63 237.011 49.07L238.061 48.23L239.741 50.47C239.368 50.9833 238.621 51.66 237.501 52.5C236.381 53.34 235.331 54.04 234.351 54.6C231.644 56.0933 228.681 56.84 225.461 56.84C222.241 56.84 219.698 55.6967 217.831 53.41C215.964 51.1233 215.031 47.95 215.031 43.89ZM225.041 41.58C227.421 41.16 229.311 40.1567 230.711 38.57C232.111 36.9833 232.811 34.93 232.811 32.41C232.811 29.89 232.064 28.63 230.571 28.63C228.798 28.63 227.421 30.1467 226.441 33.18C225.508 36.1667 225.041 38.9667 225.041 41.58ZM296.134 56.84C293.707 56.84 291.934 56.21 290.814 54.95C289.694 53.6433 289.134 51.94 289.134 49.84C289.134 47.6933 290.184 41.9533 292.284 32.62C288.317 32.7133 285.144 33.0867 282.764 33.74C281.41 40.32 279.334 46.0133 276.534 50.82C275.087 53.2467 273.337 55.16 271.284 56.56C269.23 58.0067 266.99 58.73 264.564 58.73C262.137 58.73 260.154 57.9133 258.614 56.28C257.074 54.6933 256.304 52.5933 256.304 49.98C256.304 46.2467 257.844 42.7467 260.924 39.48C264.004 36.1667 267.9 33.5067 272.614 31.5C273.034 27.2067 273.244 23.7067 273.244 21C273.244 18.2467 272.964 16.31 272.404 15.19C271.89 14.07 271.05 13.51 269.884 13.51C268.717 13.51 267.177 13.9533 265.264 14.84C263.35 15.68 261.554 16.8233 259.874 18.27L258.124 15.75C259.804 13.6967 262.277 11.76 265.544 9.94C268.81 8.07333 271.96 7.14 274.994 7.14C281.107 7.14 284.164 11.7833 284.164 21.07C284.164 23.2633 283.977 25.9 283.604 28.98C286.637 28.3733 289.88 27.9767 293.334 27.79C294.92 20.4167 295.714 14.5833 295.714 10.29C295.714 9.49666 295.667 8.89 295.574 8.47C299.307 7.02333 303.064 6.3 306.844 6.3C306.984 6.67333 307.054 7.32666 307.054 8.26C307.054 11.1533 305.91 17.7567 303.624 28.07C309.224 28.49 313.05 29.05 315.104 29.75C315.15 29.9367 315.174 30.2867 315.174 30.8C315.174 31.78 314.73 33.0167 313.844 34.51C310.81 33.5767 307.077 32.97 302.644 32.69C301.01 40.53 300.194 45.6167 300.194 47.95C300.194 50.2367 300.754 51.38 301.874 51.38C302.48 51.38 303.134 51.2633 303.834 51.03L304.884 53.76C301.524 55.8133 298.607 56.84 296.134 56.84ZM263.864 52.01C265.357 52.01 266.827 50.7267 268.274 48.16C269.72 45.5933 270.887 41.7667 271.774 36.68C269.16 37.8 266.78 39.55 264.634 41.93C262.487 44.31 261.414 46.5967 261.414 48.79C261.414 49.8167 261.647 50.61 262.114 51.17C262.627 51.73 263.21 52.01 263.864 52.01ZM309.933 50.75C309.933 48.7433 310.54 45.3367 311.753 40.53C312.967 35.6767 313.573 32.7133 313.573 31.64C313.573 30.52 312.733 29.05 311.053 27.23L311.123 26.32C314.297 25.6667 318.473 25.34 323.653 25.34C323.887 25.9467 324.003 27.0433 324.003 28.63C324.003 30.2167 323.35 33.6 322.043 38.78C320.737 43.96 320.083 47.18 320.083 48.44C320.083 49.7 320.55 50.33 321.483 50.33C322.837 50.33 324.4 49.84 326.173 48.86C326.36 47.74 326.827 45.5933 327.573 42.42C329.253 34.9533 330.093 29.61 330.093 26.39C331.727 25.7367 334.667 25.41 338.913 25.41H340.243C340.243 27.6033 339.59 31.8967 338.283 38.29C336.977 44.6367 336.323 48.37 336.323 49.49C336.323 50.5633 336.557 51.1 337.023 51.1C337.303 51.1 338.633 50.54 341.013 49.42L342.343 51.66C338.19 55.1133 334.55 56.84 331.423 56.84C329.93 56.84 328.647 56.42 327.573 55.58C326.547 54.74 325.963 53.6433 325.823 52.29C322.043 55.37 318.613 56.91 315.533 56.91C313.9 56.91 312.547 56.3733 311.473 55.3C310.447 54.2267 309.933 52.71 309.933 50.75ZM362.435 7.14C362.435 10.6867 361.245 17.64 358.865 28C361.665 25.9933 364.185 24.99 366.425 24.99C368.712 24.99 370.648 25.9467 372.235 27.86C373.868 29.7267 374.685 32.5967 374.685 36.47C374.685 42.9567 373.402 47.9733 370.835 51.52C368.315 55.0667 365.235 56.84 361.595 56.84C360.242 56.84 358.865 56.6767 357.465 56.35C356.112 56.0233 355.085 55.6733 354.385 55.3L353.335 54.81C350.348 55.8367 347.432 56.35 344.585 56.35C344.305 56.1167 344.165 54.9967 344.165 52.99C344.165 50.9367 345.472 44.2167 348.085 32.83C350.698 21.3967 352.005 13.58 352.005 9.38C352.005 8.63333 351.888 7.67666 351.655 6.51C355.295 5.25 358.772 4.62 362.085 4.62C362.318 5.27333 362.435 6.11333 362.435 7.14ZM361.805 30.94C360.918 30.94 359.588 31.36 357.815 32.2C355.668 41.2533 354.502 47.74 354.315 51.66C355.715 52.2667 357.045 52.57 358.305 52.57C360.078 52.57 361.548 50.9367 362.715 47.67C363.928 44.4033 364.535 40.81 364.535 36.89C364.535 32.9233 363.625 30.94 361.805 30.94Z" fill="#F97316"/>
</svg>
